<svg xmlns="http://www.w3.org/2000/svg" viewBox="0 0 22 22"><path d="M18.7847,5.36A6.7884,6.7884,0,0,0,21,4.7294a7.3449,7.3449,0,0,1-1.9846,2.1692c-.1076,7.1078-4.6461,11.9693-11.4307,12.277A10.7827,10.7827,0,0,1,1,17.2832a8.2776,8.2776,0,0,0,6-1.6615,4.1094,4.1094,0,0,1-3.7848-2.8924,5.1465,5.1465,0,0,0,1.754-.046,4.13,4.13,0,0,1-3.2-4.1232,4.5153,4.5153,0,0,0,1.7538.5077A4.42,4.42,0,0,1,2.3077,3.56,11.7694,11.7694,0,0,0,10.8,7.8525c-1.0153-4.3077,4.6923-6.6462,7.0769-3.7692a8.6454,8.6454,0,0,0,2.6307-.9847A4.4885,4.4885,0,0,1,18.7847,5.36Z" fill="#fbfaee"/></svg>