<svg xmlns="http://www.w3.org/2000/svg" viewBox="0 0 22 22"><path d="M11,1.0183a39.2133,39.2133,0,0,1,4.1.0892,5.9466,5.9466,0,0,1,2.4954.4455,5.2261,5.2261,0,0,1,1.6934,1.1586A5.2261,5.2261,0,0,1,20.447,4.405,8.9606,8.9606,0,0,1,20.8925,6.9a39.2133,39.2133,0,0,1,.0892,4.1,39.2133,39.2133,0,0,1-.0892,4.1,5.9507,5.9507,0,0,1-.4455,2.4963,5.2323,5.2323,0,0,1-1.1586,1.6925A4.4185,4.4185,0,0,1,17.595,20.447a8.9274,8.9274,0,0,1-2.4954.4455,39.2133,39.2133,0,0,1-4.1.0892,39.2133,39.2133,0,0,1-4.1-.0892A5.93,5.93,0,0,1,4.405,20.447a5.2115,5.2115,0,0,1-1.6934-1.1586A4.4328,4.4328,0,0,1,1.553,17.5959,8.9741,8.9741,0,0,1,1.1075,15.1,39.2133,39.2133,0,0,1,1.0183,11a39.2133,39.2133,0,0,1,.0892-4.1A5.9466,5.9466,0,0,1,1.553,4.405,5.2261,5.2261,0,0,1,2.7116,2.7116,5.2261,5.2261,0,0,1,4.405,1.553,8.9606,8.9606,0,0,1,6.9,1.1075,39.2133,39.2133,0,0,1,11,1.0183Zm0,1.7824A38.14,38.14,0,0,0,6.99,2.89a5.52,5.52,0,0,0-1.7825.3564,3.147,3.147,0,0,0-1.1585.713,3.1447,3.1447,0,0,0-.713,1.1586A3.3071,3.3071,0,0,0,2.979,6.9a38.1133,38.1133,0,0,0-.0891,4.01,38.14,38.14,0,0,0,.0891,4.0119,5.5256,5.5256,0,0,0,.3565,1.7824,3.1412,3.1412,0,0,0,.713,1.1579,3.1457,3.1457,0,0,0,1.1585.713,3.3046,3.3046,0,0,0,1.7825.3573A38.4953,38.4953,0,0,0,11,19.021a38.4956,38.4956,0,0,0,4.0105-.0883,5.5372,5.5372,0,0,0,1.7825-.3573,2.9379,2.9379,0,0,0,1.8715-1.8707,3.3123,3.3123,0,0,0,.3565-1.7824,38.1586,38.1586,0,0,0,.0891-4.0114A38.1133,38.1133,0,0,0,19.021,6.9a5.52,5.52,0,0,0-.3565-1.7825,3.1447,3.1447,0,0,0-.713-1.1586,3.147,3.147,0,0,0-1.1585-.713A3.308,3.308,0,0,0,15.0105,2.89,38.14,38.14,0,0,0,11,2.8007ZM11,5.92a5.0219,5.0219,0,0,1,5.08,4.9631c0,.039,0,.0779,0,.1169a5.0219,5.0219,0,0,1-4.9631,5.08c-.039,0-.0779,0-.1169,0a5.0219,5.0219,0,0,1-5.08-4.9631c0-.039,0-.0779,0-.1169a5.0219,5.0219,0,0,1,4.9631-5.08C10.9221,5.92,10.961,5.92,11,5.92Zm0,8.4667A3.5061,3.5061,0,0,0,14.3867,11,3.3867,3.3867,0,1,0,11,14.3867Zm6.5058-8.734a1.1586,1.1586,0,1,1-1.1587-1.1585h0a1.18,1.18,0,0,1,1.1586,1.1586Z" fill="#fbfaee"/></svg>